<svg width="48" height="48" viewBox="0 0 48 48" fill="none" xmlns="http://www.w3.org/2000/svg">
<path d="M23.0452 21.7261L13.4009 12.0817C12.8736 11.5545 12.8736 10.6997 13.4009 10.1725L23.0452 0.52825C23.5725 0.001 24.4272 0.001 24.9544 0.52825L34.5987 10.1726C35.1259 10.6998 35.1259 11.5546 34.5987 12.0818L24.9543 21.7261C24.4272 22.2532 23.5724 22.2532 23.0452 21.7261ZM24.9543 47.4713L34.5987 37.827C35.1259 37.2997 35.1259 36.445 34.5987 35.9177L24.9543 26.2735C24.4271 25.7462 23.5724 25.7462 23.0451 26.2735L13.4009 35.9178C12.8736 36.4451 12.8736 37.2998 13.4009 37.8271L23.0452 47.4714C23.5724 47.9986 24.4272 47.9986 24.9543 47.4713ZM26.2735 24.8097L35.9178 34.454C36.4451 34.9813 37.2998 34.9813 37.8271 34.454L47.4714 24.8097C47.9987 24.2824 47.9987 23.4277 47.4714 22.9005L37.827 13.2562C37.2997 12.729 36.445 12.729 35.9177 13.2562L26.2735 22.9006C25.7463 23.4277 25.7463 24.2825 26.2735 24.8097ZM0.52825 24.8097L10.1726 34.454C10.6998 34.9813 11.5546 34.9813 12.0818 34.454L21.7262 24.8097C22.2534 24.2824 22.2534 23.4277 21.7262 22.9005L12.0817 13.2562C11.5545 12.729 10.6997 12.729 10.1725 13.2562L0.52825 22.9006C0.001 23.4277 0.001 24.2825 0.52825 24.8097Z" fill="#F7EB80"/>
<path d="M23.7691 28.8971C26.4737 28.8971 28.6661 26.7046 28.6661 24.0001C28.6661 21.2955 26.4737 19.103 23.7691 19.103C21.0645 19.103 18.8721 21.2955 18.8721 24.0001C18.8721 26.7046 21.0645 28.8971 23.7691 28.8971Z" fill="#FE7E25"/>
</svg>
