<svg width="370" height="23" viewBox="0 0 370 23" fill="none" xmlns="http://www.w3.org/2000/svg">
<g clip-path="url(#clip0_1_3339)">
<path d="M0.0851556 1.98113C0.91347 2.80346 1.89601 3.45414 2.97642 3.89581C6.60169 5.68285 10.6674 6.58913 14.6309 7.25288C22.9282 8.64422 31.4042 8.86121 39.7972 8.70804C54.3238 8.44637 68.8185 6.92101 83.1983 4.92974C101.127 2.44065 119.023 0.277064 137.15 0.251535C137.239 0.239772 137.321 0.196067 137.38 0.128556C137.439 0.0610453 137.471 -0.0256687 137.471 -0.115443C137.471 -0.205218 137.439 -0.291932 137.38 -0.359443C137.321 -0.426954 137.239 -0.470659 137.15 -0.482422C122.001 -0.354726 106.879 0.794563 91.885 2.95762C76.3563 5.0893 60.8595 7.18906 45.184 7.82091C35.9804 8.18469 26.6747 8.17831 17.5222 6.95292C13.0544 6.35298 8.41435 5.50414 4.24018 3.67881C3.02112 3.14908 1.46377 2.49171 0.59575 1.4514C0.295771 1.08762 -0.221212 1.61096 0.0787668 1.96837L0.0851556 1.98113Z" fill="#FAC18A"/>
<path d="M232.878 0.26424C248.673 0.26424 264.443 1.75131 280.067 3.97234C295.314 6.13593 310.599 8.05698 326.018 8.60586C335.055 8.93136 344.187 8.86753 353.161 7.61023C357.583 6.972 362.096 6.11678 366.206 4.30422C367.482 3.74896 369.046 3.06606 369.952 1.98107C370.245 1.62366 369.735 1.10031 369.428 1.4641C368.621 2.26279 367.662 2.89207 366.608 3.31496C362.957 5.09562 358.847 5.9636 354.871 6.6146C346.402 7.99955 337.729 8.1591 329.164 7.96763C314.243 7.62299 299.347 6.00189 284.579 3.88936C267.437 1.43219 250.231 -0.444197 232.884 -0.469727C232.795 -0.457964 232.713 -0.414259 232.654 -0.346748C232.595 -0.279237 232.562 -0.192513 232.562 -0.102738C232.562 -0.0129636 232.595 0.0737505 232.654 0.141262C232.713 0.208773 232.795 0.252478 232.884 0.26424H232.878Z" fill="#FAC18A"/>
<path d="M232.875 0.0361328C196.406 0.0361328 185.008 17.9141 185.008 17.9141C185.008 17.9141 173.615 0.0667808 137.141 0.0361328C173.609 0.0361328 185.008 6.83998 185.008 6.83998C185.008 6.83998 196.374 0.0463488 232.875 0.0361328Z" fill="#FAC18A"/>
<path d="M232.876 -0.255121C215.816 -0.204041 197.25 4.0356 186.604 15.4264C185.884 16.1541 185.244 16.93 184.69 17.7455H185.328C183.834 15.4162 181.454 13.3373 179.124 11.5495C173.176 6.98291 165.721 3.82106 157.833 1.97197C151.102 0.452112 144.136 -0.297685 137.142 -0.255121V0.332304C147.819 0.332304 158.593 0.843104 169.053 2.61558C173.821 3.42775 178.697 4.46467 183.043 6.2678C183.656 6.50658 184.245 6.78325 184.804 7.09529C184.86 7.12289 184.924 7.13752 184.99 7.13752C185.055 7.13752 185.119 7.12289 185.175 7.09529C186.898 6.07369 189.087 5.41987 191.078 4.83245C197.92 2.78925 205.234 1.7983 212.459 1.1598C219.241 0.589641 226.056 0.313408 232.876 0.332304C232.965 0.32289 233.046 0.287911 233.106 0.233879C233.165 0.179847 233.197 0.110446 233.197 0.0385955C233.197 -0.033255 233.165 -0.102664 233.106 -0.156696C233.046 -0.210728 232.965 -0.245707 232.876 -0.255121C222.134 -0.255121 211.291 0.255681 200.76 2.0537C195.967 2.86587 191.085 3.92322 186.719 5.71613C186.125 6.02575 185.512 6.31047 184.881 6.56917C185.13 6.49765 185.328 6.68154 185.009 6.47211C184.721 6.30717 184.418 6.16031 184.102 6.03283C180.35 4.35741 176.086 3.34602 171.938 2.53385C160.616 0.316978 148.815 -0.239797 137.193 -0.255121C137.104 -0.245707 137.022 -0.210728 136.963 -0.156696C136.904 -0.102664 136.871 -0.033255 136.871 0.0385955C136.871 0.110446 136.904 0.179847 136.963 0.233879C137.022 0.287911 137.104 0.32289 137.193 0.332304C154.023 0.383384 172.538 4.55151 182.973 15.8811C183.628 16.562 184.213 17.2846 184.722 18.0417C184.754 18.0862 184.801 18.1231 184.857 18.1487C184.913 18.1744 184.976 18.1878 185.041 18.1878C185.105 18.1878 185.168 18.1744 185.224 18.1487C185.28 18.1231 185.327 18.0862 185.36 18.0417C186.789 15.8146 189.042 13.8327 191.27 12.1062C197.097 7.58055 204.449 4.44424 212.204 2.59004C218.925 1.05346 225.886 0.293199 232.876 0.332304C232.965 0.32289 233.046 0.287911 233.106 0.233879C233.165 0.179847 233.197 0.110446 233.197 0.0385955C233.197 -0.033255 233.165 -0.102664 233.106 -0.156696C233.046 -0.210728 232.965 -0.245707 232.876 -0.255121Z" fill="#FAC18A"/>
</g>
<defs>
<clipPath id="clip0_1_3339">
<rect width="370" height="23" fill="white"/>
</clipPath>
</defs>
</svg>
