<svg width="570" height="23" viewBox="0 0 570 23" fill="none" xmlns="http://www.w3.org/2000/svg">
<g clip-path="url(#clip0_1_3334)">
<path d="M0.167328 1.98113C1.59805 2.80346 3.29515 3.45414 5.1613 3.89581C11.4231 5.68285 18.4456 6.58913 25.2917 7.25288C39.6233 8.64422 54.2636 8.86121 68.7605 8.70804C93.8519 8.44637 118.888 6.92101 143.726 4.92974C174.693 2.44065 205.605 0.277064 236.914 0.251535C237.068 0.239772 237.209 0.196067 237.311 0.128556C237.414 0.0610453 237.47 -0.0256687 237.47 -0.115443C237.47 -0.205218 237.414 -0.291932 237.311 -0.359443C237.209 -0.426954 237.068 -0.470659 236.914 -0.482422C210.749 -0.354726 184.628 0.794563 158.73 2.95762C131.908 5.0893 105.141 7.18906 78.065 7.82091C62.168 8.18469 46.0946 8.17831 30.2857 6.95292C22.5687 6.35298 14.5541 5.50414 7.34416 3.67881C5.23852 3.14908 2.54856 2.49171 1.04926 1.4514C0.531116 1.08762 -0.36185 1.61096 0.156293 1.96837L0.167328 1.98113Z" fill="#FAC18A"/>
<path d="M333.107 0.26424C360.388 0.26424 387.624 1.75131 414.607 3.97234C440.94 6.13593 467.339 8.05698 493.969 8.60586C509.577 8.93136 525.35 8.86753 540.848 7.61023C548.487 6.972 556.279 6.11678 563.378 4.30422C565.582 3.74896 568.283 3.06606 569.848 1.98107C570.355 1.62366 569.473 1.10031 568.944 1.4641C567.549 2.26279 565.893 2.89207 564.072 3.31496C557.768 5.09562 550.669 5.9636 543.802 6.6146C529.175 7.99955 514.196 8.1591 499.403 7.96763C473.633 7.62299 447.906 6.00189 422.4 3.88936C392.794 1.43219 363.077 -0.444197 333.118 -0.469727C332.964 -0.457964 332.823 -0.414259 332.721 -0.346748C332.619 -0.279237 332.562 -0.192513 332.562 -0.102738C332.562 -0.0129636 332.619 0.0737505 332.721 0.141262C332.823 0.208773 332.964 0.252478 333.118 0.26424H333.107Z" fill="#FAC18A"/>
<path d="M332.875 0.0361328C296.406 0.0361328 285.008 17.9141 285.008 17.9141C285.008 17.9141 273.615 0.0667808 237.141 0.0361328C273.609 0.0361328 285.008 6.83998 285.008 6.83998C285.008 6.83998 296.374 0.0463488 332.875 0.0361328Z" fill="#FAC18A"/>
<path d="M332.876 -0.255121C315.816 -0.204041 297.25 4.0356 286.604 15.4264C285.884 16.1541 285.244 16.93 284.69 17.7455H285.328C283.834 15.4162 281.454 13.3373 279.124 11.5495C273.176 6.98291 265.721 3.82106 257.833 1.97197C251.102 0.452112 244.136 -0.297685 237.142 -0.255121V0.332304C247.819 0.332304 258.593 0.843104 269.053 2.61558C273.821 3.42775 278.697 4.46467 283.043 6.2678C283.656 6.50658 284.245 6.78325 284.804 7.09529C284.86 7.12289 284.924 7.13752 284.99 7.13752C285.055 7.13752 285.119 7.12289 285.175 7.09529C286.898 6.07369 289.087 5.41987 291.078 4.83245C297.92 2.78925 305.234 1.7983 312.459 1.1598C319.241 0.589641 326.056 0.313408 332.876 0.332304C332.965 0.32289 333.046 0.287911 333.106 0.233879C333.165 0.179847 333.197 0.110446 333.197 0.0385955C333.197 -0.033255 333.165 -0.102664 333.106 -0.156696C333.046 -0.210728 332.965 -0.245707 332.876 -0.255121C322.134 -0.255121 311.291 0.255681 300.76 2.0537C295.967 2.86587 291.085 3.92322 286.719 5.71613C286.125 6.02575 285.512 6.31047 284.881 6.56917C285.13 6.49765 285.328 6.68154 285.009 6.47211C284.721 6.30717 284.418 6.16031 284.102 6.03283C280.35 4.35741 276.086 3.34602 271.938 2.53385C260.616 0.316978 248.815 -0.239797 237.193 -0.255121C237.104 -0.245707 237.022 -0.210728 236.963 -0.156696C236.904 -0.102664 236.871 -0.033255 236.871 0.0385955C236.871 0.110446 236.904 0.179847 236.963 0.233879C237.022 0.287911 237.104 0.32289 237.193 0.332304C254.023 0.383384 272.538 4.55151 282.973 15.8811C283.628 16.562 284.213 17.2846 284.722 18.0417C284.754 18.0862 284.801 18.1231 284.857 18.1487C284.913 18.1744 284.976 18.1878 285.041 18.1878C285.105 18.1878 285.168 18.1744 285.224 18.1487C285.28 18.1231 285.327 18.0862 285.36 18.0417C286.789 15.8146 289.042 13.8327 291.27 12.1062C297.097 7.58055 304.449 4.44424 312.204 2.59004C318.925 1.05346 325.886 0.293199 332.876 0.332304C332.965 0.32289 333.046 0.287911 333.106 0.233879C333.165 0.179847 333.197 0.110446 333.197 0.0385955C333.197 -0.033255 333.165 -0.102664 333.106 -0.156696C333.046 -0.210728 332.965 -0.245707 332.876 -0.255121Z" fill="#FAC18A"/>
</g>
<defs>
<clipPath id="clip0_1_3334">
<rect width="570" height="23" fill="white"/>
</clipPath>
</defs>
</svg>
