<svg width="18" height="11" viewBox="0 0 18 11" fill="none" xmlns="http://www.w3.org/2000/svg">
<path d="M0.221416 4.94343L0.22204 4.94273L3.84609 1.124C4.11759 0.837929 4.55673 0.838993 4.82698 1.1265C5.09719 1.41397 5.09615 1.87893 4.82465 2.16505L2.39146 4.72888H17.0799C17.4629 4.72888 17.7734 5.05766 17.7734 5.46325C17.7734 5.86884 17.4629 6.19762 17.0799 6.19762H2.3915L4.82462 8.76145C5.09612 9.04757 5.09716 9.51253 4.82694 9.8C4.55669 10.0875 4.11752 10.0885 3.84606 9.8025L0.222004 5.98377L0.22138 5.98307C-0.0502567 5.69601 -0.0493889 5.22954 0.221416 4.94343Z" fill="#B47C19"/>
</svg>
