<svg width="19" height="10" viewBox="0 0 19 10" fill="none" xmlns="http://www.w3.org/2000/svg">
<path d="M0.721416 4.44342L0.72204 4.44273L4.34609 0.624002C4.61759 0.337929 5.05673 0.338993 5.32698 0.626499C5.59719 0.913968 5.59615 1.37893 5.32465 1.66505L2.89146 4.22888H17.5799C17.9629 4.22888 18.2734 4.55766 18.2734 4.96325C18.2734 5.36884 17.9629 5.69762 17.5799 5.69762H2.8915L5.32462 8.26145C5.59612 8.54756 5.59716 9.01253 5.32694 9.3C5.05669 9.58754 4.61752 9.58853 4.34606 9.3025L0.722004 5.48377L0.72138 5.48307C0.449743 5.19601 0.450611 4.72954 0.721416 4.44342Z" fill="#1A576C"/>
</svg>
