<svg width="19" height="10" viewBox="0 0 19 10" fill="none" xmlns="http://www.w3.org/2000/svg">
<path d="M18.2239 4.44342L18.2233 4.44273L14.5992 0.624002C14.3277 0.337929 13.8886 0.338993 13.6183 0.626499C13.3481 0.913968 13.3492 1.37893 13.6207 1.66505L16.0538 4.22888H1.36545C0.982387 4.22888 0.671875 4.55766 0.671875 4.96325C0.671875 5.36884 0.982387 5.69762 1.36545 5.69762H16.0538L13.6207 8.26145C13.3492 8.54756 13.3482 9.01253 13.6184 9.3C13.8886 9.58754 14.3278 9.58853 14.5993 9.3025L18.2233 5.48377L18.2239 5.48307C18.4956 5.19601 18.4947 4.72954 18.2239 4.44342Z" fill="white"/>
</svg>
